# xmcd
#
# Track frame offsets: 
#        150
#        15248
#        49704
#        83666
#        125412
#        165305
#        205846
#        224632
#
# Disc length: 3600 seconds
#
# Revision: 0
# Processed by: cddbd v1.5.2PL0 Copyright (c) Steve Scherf et al.
# Submitted via: ExactAudioCopy v0.99pb5
#
DISCID=5f0e0e08
DTITLE=Joe Bonamassa - Live In Iowa 2004
DYEAR=1900
DGENRE=
TTITLE0=If 6 Was 9
TTITLE1=Spanish Castle Magic
TTITLE2=You Upset Me Baby
TTITLE3=Blues Deluxe
TTITLE4=Takin The Hit
TTITLE5=Mountain Time
TTITLE6=Wild About You Baby
TTITLE7=Burning Hell
EXTD=
EXTT0=
EXTT1=
EXTT2=
EXTT3=
EXTT4=
EXTT5=
EXTT6=
EXTT7=
PLAYORDER=
